<?xml version="1.0" standalone="no"?><!DOCTYPE svg PUBLIC "-//W3C//DTD SVG 1.1//EN" "http://www.w3.org/Graphics/SVG/1.1/DTD/svg11.dtd"><svg t="1563177350381" class="icon" viewBox="0 0 1024 1024" version="1.1" xmlns="http://www.w3.org/2000/svg" p-id="1784" xmlns:xlink="http://www.w3.org/1999/xlink" width="200" height="200"><defs><style type="text/css"></style></defs><path d="M1007.483871 512zM487.622194 1024C227.427097 1024 16.516129 816.260129 16.516129 559.995871 16.516129 366.030452 137.381161 199.911226 308.917677 130.609548v0.132129c5.086968-1.783742 10.570323-2.741677 16.251871-2.741677 26.92129 0 48.755613 21.504 48.755613 47.995871 0 20.909419-13.576258 38.680774-32.503742 45.254194V221.316129c-133.681548 56.02271-227.427097 186.566194-227.427096 338.679742 0 203.247484 167.275355 368.012387 373.627871 368.012387s373.660903-164.764903 373.660903-368.012387c0-152.113548-93.745548-282.657032-227.460129-338.679742v-0.066064a48.061935 48.061935 0 0 1-32.47071-45.254194c0-26.491871 21.80129-47.995871 48.722581-47.995871 5.714581 0 11.164903 0.957935 16.251871 2.741677v-0.132129c171.569548 69.301677 292.434581 235.420903 292.43458 429.386323C958.76129 816.260129 747.81729 1024 487.622194 1024z m0-496.012387c-26.92129 0-48.722581-21.470968-48.722581-47.995871V47.995871c0-26.491871 21.80129-47.995871 48.722581-47.995871 26.92129 0 48.755613 21.504 48.755612 47.995871v431.995871c0 26.524903-21.834323 47.995871-48.755612 47.995871z" fill="" p-id="1785"></path></svg>